#N canvas 483 556 474 486 10;
#X declare -lib pd-partialtrack/pd-partialtrack/partialtrack;
#X declare -path SOFAlizer-for-pd;
#X declare -path piro;
#X declare -lib cyclone;
#X declare -path else;
#X declare -path pd-soundtouch;
#X declare -path Lib;
#X msg 7 309 score.svg;
#X msg 87 309 play;
#X obj 375 10 tgl 54 0 empty empty empty 0 -9 0 10 #fcfcfc #000000 #000000 0 1;
#X msg 133 309 stop;
#N canvas 6 556 471 486 config 0;
#X obj 4 4 py4pd -lib py4pd-upic;
#X obj 4 26 py4pd -lib orchidea;
#X obj 186 4 declare -lib pd-partialtrack/pd-partialtrack/partialtrack;
#X obj 186 32 declare -path SOFAlizer-for-pd;
#X obj 186 61 declare -path piro;
#N canvas 0 0 450 250 (subpatch) 0;
#X array ir1 225600 float 2;
#X coords 0 1 225600 -1 290 86 1;
#X restore 129 236 graph;
#X obj 4 236 soundfiler;
#X obj 4 132 loadbang;
#X obj 4 47 declare -lib cyclone;
#X obj 4 69 declare -path else;
#X obj 538 4 declare -path pd-soundtouch;
#X obj 4 89 declare -path Lib;
#X obj 230 111;
#X msg 4 177 read -resize Resources/small.aif ir1;
#X connect 7 0 13 0;
#X connect 13 0 6 0;
#X restore 208 10 pd config;
#X obj 7 375 readsvg;
#X obj 7 406 svg2pd;
#X obj 743 220 writesf~ 2;
#N canvas 6 556 471 486 (subpatch) 0;
#X obj 124 214 vu 18 80 empty empty -1 -9 0 10 #404040 #000000 0 0;
#X obj 123 171 else/vu~;
#X obj 123 301 nbx 5 16 -1e+37 1e+37 0 0 empty empty empty 0 -9 0 10 #fcfcfc #000000 #000000 0 256;
#X obj 201 213 vu 18 80 empty empty -1 -9 0 10 #404040 #000000 0 0;
#X obj 200 170 else/vu~;
#X obj 200 300 nbx 5 16 -1e+37 1e+37 0 0 empty empty empty 0 -9 0 10 #fcfcfc #000000 #000000 0 256;
#X obj 123 322 expr if($f1 < -600 && $f2 < -600 \, 1 \, 0);
#X obj 123 344 tgl 18 0 empty empty empty 0 -9 0 10 #fcfcfc #000000 #000000 0 1;
#X obj 123 390 sel 1;
#X obj 123 369 change;
#X msg 123 412 0;
#X obj 123 88 inlet~;
#X obj 200 87 inlet~;
#X obj 122 483 outlet;
#X msg 123 441 stop;
#X connect 0 0 2 0;
#X connect 1 0 0 0;
#X connect 2 0 6 0;
#X connect 3 0 5 0;
#X connect 4 0 3 0;
#X connect 5 0 6 1;
#X connect 6 0 7 0;
#X connect 7 0 9 0;
#X connect 8 0 10 0;
#X connect 9 0 8 0;
#X connect 10 0 14 0;
#X connect 11 0 1 0;
#X connect 12 0 4 0;
#X connect 14 0 13 0;
#X restore 642 151 pd;
#X obj 836 98 r spi;
#X msg 836 127 start;
#X obj 642 190 bng 50 250 50 0 empty empty empty 17 7 0 10 #e4e4e4 #000000 #373737;
#X msg 886 128 stop;
#X obj 642 245 print done;
#X msg 375 80 fast-forward \$1;
#X obj 375 146 send pd;
#X obj 7 482 route Ellipse;
#N canvas 6 31 471 487 Ellipse 1;
#X obj 15 3 inlet;
#X obj 47 226 tgl 25 0 empty empty empty 17 7 0 10 #e4e4e4 #000000 #373737 0 1;
#X obj 229 230 tgl 25 0 empty empty empty 17 7 0 10 #e4e4e4 #000000 #373737 0 1;
#N canvas 483 31 474 487 pizz 0;
#X obj 12 6 inlet;
#X obj 12 279 else/pitch2note;
#X obj 12 385 symbol;
#X msg 273 194 sharp;
#X obj 273 172 loadbang;
#X obj 12 426 pack s f, f 41;
#X msg 12 461 next \$1 \$2;
#X obj 110 37 tgl 42 0 empty empty empty 17 7 0 10 #e4e4e4 #000000 #373737 0 1;
#X obj 110 98 switch~;
#X obj 12 172 unpack f f f, f 30;
#X obj 12 354 orchidea.violin None mf 10;
#X obj 12 98 spigot;
#X obj 12 520 *~ 1.5;
#X obj 110 6 inlet;
#X obj 158 520 *~ 1.5;
#X msg 9 209 60;
#X obj 12 560 snake~ in 2;
#X obj 12 589 throw~ vl-pizz;
#X obj 12 491 clone load2play-vl-pizz2 100;
#X obj 91 231 + 55;
#X obj 91 209 * 30;
#X connect 0 0 11 0;
#X connect 1 0 10 0;
#X connect 2 0 5 0;
#X connect 3 0 1 0;
#X connect 4 0 3 0;
#X connect 5 0 6 0;
#X connect 6 0 18 0;
#X connect 7 0 8 0;
#X connect 7 0 11 1;
#X connect 9 1 20 0;
#X connect 9 2 5 1;
#X connect 10 0 2 0;
#X connect 11 0 9 0;
#X connect 12 0 16 0;
#X connect 13 0 7 0;
#X connect 14 0 16 1;
#X connect 15 0 1 0;
#X connect 16 0 17 0;
#X connect 18 0 12 0;
#X connect 18 1 14 0;
#X connect 19 0 1 0;
#X connect 20 0 19 0;
#X coords 0 0 1 1 51 49 0;
#X restore 15 273 pd pizz;
#N canvas 483 556 474 486 sul-pont 0;
#X obj 2 2 inlet;
#X obj 2 185 else/pitch2note;
#X obj 2 259 symbol;
#X msg -1 83 38;
#X msg 263 68 sharp;
#X obj 263 46 loadbang;
#X obj 224 185 nbx 23 32 -1e+37 1e+37 0 0 empty empty empty 0 -8 0 10 #e4e4e4 #373737 #373737 0 256;
#X obj 344 68 orchidea.harp None mf 7;
#X obj 81 105 + 60;
#X obj 581 198 tgl 42 0 empty empty empty 17 7 0 10 #e4e4e4 #000000 #373737 0 1;
#X obj 581 248 switch~;
#X obj 2 46 unpack f f f, f 30;
#X obj 81 83 * 24;
#X obj 2 222 orchidea.violin None mf 12;
#X obj 2 539 giga.rev~;
#X msg 284 457 size 50 \, decay 1.5 \, damp 0.1 \, bw 0.75 \, dry 0.84 \, early 0.31 \, late 0.1, f 69;
#X obj 284 323 loadbang;
#X obj 579 105 inlet;
#X obj 2 457 else/lowpass~ 700 0.4;
#X obj 2 414 *~ 16;
#X obj 2 490 hip~ 500;
#X obj 2 568 snake~ in 2;
#X obj 2 597 throw~ sul-pont;
#X msg 2 335 next \$1 \$2 \$3;
#X obj 2 300 pack s f f, f 41;
#X obj 2 385 clone clone-peaks 50;
#X obj 81 134 t f f;
#X connect 0 0 11 0;
#X connect 1 0 13 0;
#X connect 2 0 24 0;
#X connect 3 0 1 0;
#X connect 4 0 1 0;
#X connect 5 0 4 0;
#X connect 6 0 24 1;
#X connect 8 0 26 0;
#X connect 9 0 10 0;
#X connect 11 1 12 0;
#X connect 11 2 24 1;
#X connect 12 0 8 0;
#X connect 13 0 2 0;
#X connect 14 0 21 0;
#X connect 14 1 21 1;
#X connect 15 0 14 0;
#X connect 16 0 15 0;
#X connect 17 0 9 0;
#X connect 18 0 20 0;
#X connect 19 0 18 0;
#X connect 20 0 14 0;
#X connect 21 0 22 0;
#X connect 23 0 25 0;
#X connect 24 0 23 0;
#X connect 25 0 19 0;
#X connect 26 0 1 0;
#X connect 26 1 24 2;
#X coords 0 0 1 1 50 48 0;
#X restore 169 273 pd sul-pont;
#X obj 423 226 tgl 25 0 empty empty empty 17 7 0 10 #e4e4e4 #000000 #373737 0 1;
#N canvas 6 556 60 60 plaits 1;
#X obj 8 9 inlet;
#X obj 8 146 + 60;
#X obj 220 91 tgl 42 0 empty empty empty 17 7 0 10 #e4e4e4 #000000 #373737 0 1;
#X obj 220 146 switch~;
#X obj 8 53 unpack f f f, f 30;
#X obj 8 113 * 24;
#X obj 220 53 inlet;
#X msg 10 276 next \$1 \$2;
#X obj 10 211 pack f f;
#X obj 10 313 clone clone-plaits 20, f 28;
#X obj 8 406 snake~ in 2;
#X obj 8 435 throw~ plaits;
#X obj 8 350 lowpass~ 5000 0.2;
#X obj 153 350 lowpass~ 5000 0.2;
#X connect 0 0 4 0;
#X connect 1 0 8 0;
#X connect 2 0 3 0;
#X connect 4 1 5 0;
#X connect 4 2 8 1;
#X connect 5 0 1 0;
#X connect 6 0 2 0;
#X connect 7 0 9 0;
#X connect 8 0 7 0;
#X connect 9 0 12 0;
#X connect 9 1 13 0;
#X connect 10 0 11 0;
#X connect 12 0 10 0;
#X connect 13 0 10 1;
#X coords 0 0 1 1 50 48 0;
#X restore 323 273 pd plaits;
#X obj 598 229 tgl 25 0 empty empty empty 17 7 0 10 #e4e4e4 #000000 #373737 0 1;
#N canvas 6 556 60 60 sen 0;
#X obj 57 4 inlet;
#X msg 318 82 sharp;
#X obj 318 45 loadbang;
#X obj 423 83 tgl 42 0 empty empty empty 17 7 0 10 #e4e4e4 #000000 #373737 0 1;
#X obj 423 133 switch~;
#X obj 57 45 unpack f f f, f 30;
#X msg 287 341 size 50 \, decay 1.5 \, damp 0.1 \, bw 0.75 \, dry 0.84 \, early 0.31 \, late 0.1, f 69;
#X obj 287 269 loadbang;
#X obj 423 45 inlet;
#X obj 57 336 clone clone-sen 40;
#X msg 57 269 next \$1 \$2;
#X obj 57 198 pack f f, f 31;
#X msg 215 4 8 0.3 20;
#X obj 136 115 + 84;
#X obj 136 82 * 36;
#X obj 57 507 snake~ in 2;
#X obj 57 536 throw~ sen;
#X obj 129 438 lowpass~ 5000 0.2;
#X obj 54 387 lowpass~ 5000 0.2;
#X connect 0 0 5 0;
#X connect 2 0 1 0;
#X connect 3 0 4 0;
#X connect 5 1 14 0;
#X connect 5 2 11 1;
#X connect 7 0 6 0;
#X connect 8 0 3 0;
#X connect 9 0 18 0;
#X connect 9 1 17 0;
#X connect 10 0 9 0;
#X connect 11 0 10 0;
#X connect 12 0 5 0;
#X connect 13 0 11 0;
#X connect 14 0 13 0;
#X connect 15 0 16 0;
#X connect 17 0 15 1;
#X connect 18 0 15 0;
#X coords 0 0 1 1 50 48 0;
#X restore 477 273 pd sen;
#X obj 700 236 tgl 25 0 empty empty empty 17 7 0 10 #e4e4e4 #000000 #373737 0 1;
#N canvas 6 556 60 60 flute-air 0;
#X obj 26 8 inlet;
#X obj 26 276 else/pitch2note;
#X obj 26 339 symbol;
#X msg 287 196 sharp;
#X obj 287 174 loadbang;
#X obj 26 380 pack s f, f 41;
#X msg 26 415 next \$1 \$2;
#X obj 105 233 + 60;
#X obj 124 39 tgl 42 0 empty empty empty 17 7 0 10 #e4e4e4 #000000 #373737 0 1;
#X obj 124 100 switch~;
#X obj 26 174 unpack f f f, f 30;
#X obj 26 100 spigot;
#X obj 124 8 inlet;
#X obj 26 446 clone load2play-vl-pizz 25, f 28;
#X msg 23 211 60;
#X obj 26 313 orchidea.flute None p 1;
#X obj 105 211 * 12;
#X obj 26 510 giga.rev~;
#X obj 170 510 giga.rev~;
#X obj 296 380 loadbang;
#X obj 26 542 *~ 3;
#X obj 170 542 *~ 3;
#X msg 296 446 size 50 \, decay 1.5 \, damp 0.1 \, bw 0.75 \, dry 0.94 \, early 0.31 \, late 0.1, f 69;
#X obj 26 570 snake~ in 2;
#X obj 26 599 throw~ flute-air;
#X connect 0 0 11 0;
#X connect 1 0 15 0;
#X connect 2 0 5 0;
#X connect 3 0 1 0;
#X connect 4 0 3 0;
#X connect 5 0 6 0;
#X connect 6 0 13 0;
#X connect 7 0 1 0;
#X connect 8 0 9 0;
#X connect 8 0 11 1;
#X connect 10 1 16 0;
#X connect 10 2 5 1;
#X connect 11 0 10 0;
#X connect 12 0 8 0;
#X connect 13 0 17 0;
#X connect 13 1 18 0;
#X connect 14 0 1 0;
#X connect 15 0 2 0;
#X connect 16 0 7 0;
#X connect 17 0 20 0;
#X connect 18 0 21 0;
#X connect 19 0 22 0;
#X connect 20 0 23 0;
#X connect 21 0 23 1;
#X connect 22 0 18 0;
#X connect 22 0 17 0;
#X connect 23 0 24 0;
#X coords 0 0 1 1 50 48 0;
#X restore 631 273 pd flute-air;
#X obj 979 152 tgl 25 0 empty empty empty 17 7 0 10 #e4e4e4 #000000 #373737 0 1;
#X obj 835 234 tgl 25 0 empty empty empty 17 7 0 10 #e4e4e4 #000000 #373737 0 1;
#N canvas 6 31 951 1011 click 0;
#X obj 12 6 inlet;
#X obj 12 365 symbol;
#X msg 273 194 sharp;
#X obj 273 172 loadbang;
#X obj 12 401 pack s f, f 41;
#X msg 12 436 next \$1 \$2;
#X obj 110 37 tgl 42 0 empty empty empty 17 7 0 10 #e4e4e4 #000000 #373737 0 1;
#X obj 110 98 switch~;
#X obj 12 172 unpack f f f, f 30;
#X obj 12 98 spigot;
#X obj 110 6 inlet;
#X msg 12 213 60;
#X obj 12 535 snake~ in 2;
#X obj 12 564 throw~ vl-pizz;
#X obj 12 466 clone load2play 25;
#X obj 91 210 * 7;
#X obj 91 237 + 1;
#X msg 143 222 2;
#X obj 117 493 *~ 0.15;
#X obj 12 495 *~ 0.15;
#X obj 91 266 int;
#X msg 91 304 ../Samples/Click/sound\$1.wav;
#X connect 0 0 9 0;
#X connect 1 0 4 0;
#X connect 3 0 2 0;
#X connect 4 0 5 0;
#X connect 5 0 14 0;
#X connect 6 0 7 0;
#X connect 6 0 9 1;
#X connect 8 1 15 0;
#X connect 8 2 4 1;
#X connect 9 0 8 0;
#X connect 10 0 6 0;
#X connect 12 0 13 0;
#X connect 14 0 19 0;
#X connect 14 1 18 0;
#X connect 15 0 16 0;
#X connect 16 0 20 0;
#X connect 17 0 21 0;
#X connect 18 0 12 1;
#X connect 19 0 12 0;
#X connect 20 0 21 0;
#X connect 21 0 1 0;
#X coords 0 0 1 1 51 49 0;
#X restore 785 273 pd click;
#X obj 939 273 print newsound;
#X obj 15 152 route #ff0000 #ffff00 #ff00ff #00ffff #00ff00 #808000, f 158;
#X obj 979 111 inlet;
#X connect 0 0 15 0;
#X connect 1 0 3 1;
#X connect 2 0 4 1;
#X connect 5 0 6 1;
#X connect 7 0 8 1;
#X connect 9 0 10 1;
#X connect 11 0 9 0;
#X connect 11 0 7 0;
#X connect 11 0 5 0;
#X connect 11 0 2 0;
#X connect 11 0 1 0;
#X connect 11 0 12 0;
#X connect 12 0 13 1;
#X connect 15 0 3 0;
#X connect 15 1 4 0;
#X connect 15 2 6 0;
#X connect 15 3 8 0;
#X connect 15 4 10 0;
#X connect 15 5 13 0;
#X connect 15 6 14 0;
#X connect 16 0 11 0;
#X restore 7 556 pd Ellipse;
#X msg 495 80 dsp \$1;
#X obj 495 10 tgl 54 0 empty empty empty 0 -9 0 10 #fcfcfc #000000 #000000 0 1;
#X msg 570 36 0;
#X obj 569 10 loadbang;
#X msg 743 60 open test\$1.wav;
#X obj 7 19 key;
#X obj 7 97 sel 32;
#X msg 179 309 play \$1;
#X obj 6 193 t b b;
#X obj 7 61 spigot;
#X obj 52 19 tgl 25 0 empty empty empty 17 7 0 10 #e4e4e4 #000000 #373737 0 1;
#X obj 179 273 nbx 11 31 -1e+37 1e+37 0 0 empty empty empty 0 -9 0 10 #fcfcfc #000000 #000000 0 256;
#X obj 743 19 nbx 5 16 -1e+37 1e+37 0 0 empty empty empty 0 -9 0 10 #fcfcfc #000000 #000000 0 256;
#N canvas 6 31 951 1011 DSP-OUT 0;
#X obj 28 33 catch~ vl-pizz 2;
#X obj 149 33 catch~ flute-air 2;
#X obj 276 33 catch~ sul-pont 2;
#X obj 419 33 catch~ sen 2;
#X obj 530 33 catch~ plaits 2;
#X obj 28 116 snake~ out 2;
#X obj 149 116 snake~ out 2;
#X obj 276 116 snake~ out 2;
#X obj 419 116 snake~ out 2;
#X obj 530 116 snake~ out 2;
#X obj 28 321 outlet~;
#X obj 565 321 outlet~;
#X connect 0 0 5 0;
#X connect 1 0 6 0;
#X connect 2 0 7 0;
#X connect 3 0 8 0;
#X connect 4 0 9 0;
#X connect 5 0 10 0;
#X connect 5 1 11 0;
#X connect 6 0 10 0;
#X connect 6 1 11 0;
#X connect 7 0 10 0;
#X connect 7 1 11 0;
#X connect 8 0 10 0;
#X connect 8 1 11 0;
#X connect 9 0 10 0;
#X connect 9 1 11 0;
#X restore 340 296 pd DSP-OUT;
#N canvas 0 50 450 300 (subpatch) 0;
#X obj 11 12 inlet;
#X obj 11 79 count;
#X obj 52 108 / 1000;
#X obj 52 145 int;
#X obj 11 279 outlet;
#X obj 11 50 metro 1;
#X obj 355 200 sel 60;
#X msg 355 239 0;
#X obj 211 49 r newsound;
#X obj 211 78 t b b, f 20;
#X msg 311 108 stop;
#X obj 233 137 del 2 1 sec;
#X obj 52 239 change;
#X obj 52 200 spigot;
#X connect 0 0 5 0;
#X connect 1 0 2 0;
#X connect 2 0 3 0;
#X connect 3 0 6 0;
#X connect 3 0 13 1;
#X connect 3 0 13 0;
#X connect 5 0 1 0;
#X connect 6 0 7 0;
#X connect 7 0 5 0;
#X connect 7 0 1 0;
#X connect 8 0 9 0;
#X connect 9 0 11 0;
#X connect 9 1 10 0;
#X connect 10 0 11 0;
#X connect 11 0 7 0;
#X connect 12 0 4 0;
#X connect 13 0 12 0;
#X restore 64 134 pd;
#X obj 66 158 nbx 8 38 -1e+37 1e+37 0 0 empty empty empty 0 -8 0 10 #e4e4e4 #373737 #373737 0 256;
#X obj 110 480 s newsound;
#X obj 116 375 tgl 58 0 empty empty empty 17 7 0 10 #e4e4e4 #000000 #373737 0 1;
#X obj 340 441 vu~;
#X obj 405 441 vu~;
#X obj 405 490 vu 37 120 empty empty -1 -8 0 10 #e4e4e4 #373737 1 0;
#X obj 340 490 vu 36 120 empty empty -1 -8 0 10 #e4e4e4 #373737 1 0;
#X obj 487 483 dac~, f 12;
#X obj 527 370 writesf~ 2;
#X msg 527 296 start;
#X msg 576 296 stop;
#X msg 628 296 open piece.wav;
#X obj 795 370 nbx 9 41 -1e+37 1e+37 0 0 empty empty empty 0 -8 0 10 #e4e4e4 #373737 #373737 0 256;
#X obj 66 209 sel, f 26;
#X obj 198 178 nbx 4 18 -1e+37 1e+37 0 0 empty empty empty 0 -8 0 10 #e4e4e4 #373737 #373737 0 256;
#X obj 487 441 *~ 1;
#X obj 533 441 *~ 1;
#X connect 0 0 5 0;
#X connect 1 0 5 0;
#X connect 2 0 14 0;
#X connect 3 0 5 0;
#X connect 5 0 6 0;
#X connect 6 0 16 0;
#X connect 6 0 34 0;
#X connect 8 0 11 0;
#X connect 8 0 7 0;
#X connect 9 0 10 0;
#X connect 10 0 7 0;
#X connect 11 0 13 0;
#X connect 12 0 7 0;
#X connect 14 0 15 0;
#X connect 16 0 17 0;
#X connect 18 0 15 0;
#X connect 19 0 18 0;
#X connect 20 0 18 0;
#X connect 21 0 20 0;
#X connect 22 0 7 0;
#X connect 23 0 27 0;
#X connect 24 0 26 0;
#X connect 24 0 32 0;
#X connect 25 0 5 0;
#X connect 26 0 29 0;
#X connect 26 1 0 0;
#X connect 27 0 24 0;
#X connect 28 0 27 1;
#X connect 29 0 25 0;
#X connect 30 0 22 0;
#X connect 31 0 36 0;
#X connect 31 0 41 0;
#X connect 31 0 48 0;
#X connect 31 1 37 0;
#X connect 31 1 41 1;
#X connect 31 1 49 0;
#X connect 32 0 33 0;
#X connect 33 0 46 0;
#X connect 35 0 17 1;
#X connect 36 0 39 0;
#X connect 37 0 38 0;
#X connect 42 0 41 0;
#X connect 43 0 41 0;
#X connect 44 0 41 0;
#X connect 45 0 48 1;
#X connect 45 0 49 1;
#X connect 46 0 3 0;
#X connect 47 0 46 1;
#X connect 48 0 40 0;
#X connect 49 0 40 1;
