#N canvas 195 121 1530 820 10;
#X declare -lib pd-partialtrack/pd-partialtrack/partialtrack;
#X declare -path SOFAlizer-for-pd;
#X declare -path piro;
#X declare -lib cyclone;
#X declare -path else;
#X declare -path pd-soundtouch;
#X declare -path Lib;
#X declare -lib partialtrack;
#X msg 47 184 score.svg;
#X msg 8 184 play;
#X msg 113 184 stop;
#N canvas 1282 23 632 1016 config 0;
#X obj 4 4 py4pd -lib py4pd-upic;
#X obj 4 26 py4pd -lib orchidea;
#X obj 186 4 declare -lib pd-partialtrack/pd-partialtrack/partialtrack;
#X obj 186 32 declare -path SOFAlizer-for-pd;
#X obj 186 61 declare -path piro;
#N canvas 0 0 450 250 (subpatch) 0;
#X array ir1 225600 float 2;
#X coords 0 1 225600 -1 290 86 1;
#X restore 129 236 graph;
#X obj 4 236 soundfiler;
#X obj 4 132 loadbang;
#X obj 4 47 declare -lib cyclone;
#X obj 4 69 declare -path else;
#X obj 538 4 declare -path pd-soundtouch;
#X obj 4 89 declare -path Lib;
#X msg 4 177 read -resize Resources/small.aif ir1;
#X obj 486 134 declare -lib partialtrack;
#X connect 7 0 12 0;
#X connect 12 0 6 0;
#X restore 263 10 pd config;
#X obj 8 208 readsvg;
#X obj 8 228 svg2pd;
#X obj 8 250 route Ellipse;
#X obj 7 19 key;
#X obj 8 83 sel 32;
#X obj 7 61 spigot;
#X obj 40 19 tgl 25 0 empty empty empty 17 7 0 10 #e4e4e4 #000000 #373737 0 1;
#N canvas 6 31 951 1011 DSP-OUT 0;
#X obj 28 33 catch~ vl-pizz 2;
#X obj 149 33 catch~ flute-air 2;
#X obj 276 33 catch~ sul-pont 2;
#X obj 419 33 catch~ sen 2;
#X obj 530 33 catch~ plaits 2;
#X obj 28 116 snake~ out 2;
#X obj 149 116 snake~ out 2;
#X obj 276 116 snake~ out 2;
#X obj 419 116 snake~ out 2;
#X obj 530 116 snake~ out 2;
#X obj 28 391 outlet~;
#X obj 565 391 outlet~;
#X obj 664 116 snake~ out 2;
#X obj 780 241 vu~;
#X obj 780 270 vu 20 120 empty empty -1 -8 0 10 #e4e4e4 #373737 1 0;
#X obj 680 232 vu~;
#X obj 680 261 vu 20 120 empty empty -1 -8 0 10 #e4e4e4 #373737 1 0;
#X obj 664 33 catch~ metal-resonant 2;
#X connect 0 0 5 0;
#X connect 1 0 6 0;
#X connect 2 0 7 0;
#X connect 3 0 8 0;
#X connect 4 0 9 0;
#X connect 5 0 10 0;
#X connect 5 1 11 0;
#X connect 6 0 10 0;
#X connect 6 1 11 0;
#X connect 7 0 10 0;
#X connect 7 1 11 0;
#X connect 8 0 10 0;
#X connect 8 1 11 0;
#X connect 9 0 10 0;
#X connect 9 1 11 0;
#X connect 12 0 10 0;
#X connect 12 0 15 0;
#X connect 12 1 11 0;
#X connect 12 1 13 0;
#X connect 13 0 14 0;
#X connect 15 0 16 0;
#X connect 17 0 12 0;
#X restore 306 106 pd DSP-OUT;
#X f 16;
#N canvas 0 50 450 300 (subpatch) 0;
#X obj 11 12 inlet, f 18;
#X obj 11 176 count;
#X obj 11 245 int;
#X obj 11 398 outlet;
#X obj 355 200 sel 60;
#X msg 356 238 0;
#X obj 11 339 change;
#X obj 11 300 spigot;
#X obj 11 41 t b b, f 19;
#X msg 98 131 0;
#X obj 11 135 metro 1000;
#X connect 0 0 8 0;
#X connect 1 0 2 0;
#X connect 2 0 7 1;
#X connect 2 0 7 0;
#X connect 2 0 4 0;
#X connect 4 0 5 0;
#X connect 5 0 10 0;
#X connect 6 0 3 0;
#X connect 7 0 6 0;
#X connect 8 0 10 0;
#X connect 8 1 9 0;
#X connect 9 0 1 0;
#X connect 10 0 1 0;
#X restore 82 110 pd;
#X obj 306 297 vu~;
#X obj 399 297 vu~;
#X obj 316 254 dac~, f 12;
#X obj 306 207 *~ 1;
#X obj 399 207 *~ 1;
#X text 68 17 Press <Space> to play.;
#X obj 412 255 writesf~ 2;
#X msg 447 214 start;
#X msg 496 214 stop;
#X obj 505 24 loadbang;
#X msg 505 74 2.5;
#X msg 544 214 open -bytes 4 pizz3.wav;
#X obj 306 157 giga.rev~;
#X obj 399 157 giga.rev~;
#X obj 8 111 t b b, f 7;
#X text 79 149 Seconds;
#X text 609 147 Geral Gain;
#X msg 554 74 size 6 \, decay 0.1 \, damp 0.3 \, bw 0.75 \, dry 1 \, early 0.0955 \, late 0.05, f 32;
#N canvas 1282 23 632 1016 EllipseIntruments 0;
#X obj 15 3 inlet;
#X obj 47 226 tgl 25 0 empty empty empty 17 7 0 10 #e4e4e4 #000000 #373737 0 1;
#X obj 134 229 tgl 25 0 empty empty empty 17 7 0 10 #e4e4e4 #000000 #373737 0 1;
#N canvas 483 31 474 487 pizz 0;
#X obj 12 6 inlet;
#X obj 12 279 else/pitch2note;
#X obj 12 385 symbol;
#X msg 273 194 sharp;
#X obj 273 172 loadbang;
#X obj 12 426 pack s f, f 41;
#X msg 12 461 next \$1 \$2;
#X obj 110 37 tgl 42 0 empty empty empty 17 7 0 10 #e4e4e4 #000000 #373737 0 1;
#X obj 110 98 switch~;
#X obj 12 172 unpack f f f, f 30;
#X obj 12 354 orchidea.violin None mf 10;
#X obj 12 98 spigot;
#X obj 110 6 inlet;
#X msg 9 209 60;
#X obj 12 560 snake~ in 2;
#X obj 12 589 throw~ vl-pizz;
#X obj 12 491 clone load2play-vl-pizz2 100;
#X obj 91 231 + 55;
#X obj 91 209 * 30;
#X obj 158 520 *~ 1.8;
#X obj 12 520 *~ 1.8;
#X connect 0 0 11 0;
#X connect 1 0 10 0;
#X connect 2 0 5 0;
#X connect 3 0 1 0;
#X connect 4 0 3 0;
#X connect 5 0 6 0;
#X connect 6 0 16 0;
#X connect 7 0 8 0;
#X connect 7 0 11 1;
#X connect 9 1 18 0;
#X connect 9 2 5 1;
#X connect 10 0 2 0;
#X connect 11 0 9 0;
#X connect 12 0 7 0;
#X connect 13 0 1 0;
#X connect 14 0 15 0;
#X connect 16 0 20 0;
#X connect 16 1 19 0;
#X connect 17 0 1 0;
#X connect 18 0 17 0;
#X connect 19 0 14 1;
#X connect 20 0 14 0;
#X coords 0 0 1 1 51 49 0;
#X restore 15 273 pd pizz;
#N canvas 483 556 474 486 sul-pont 0;
#X obj 2 2 inlet;
#X obj 2 185 else/pitch2note;
#X obj 2 259 symbol;
#X msg -1 83 38;
#X msg 263 68 sharp;
#X obj 263 46 loadbang;
#X obj 224 185 nbx 23 32 -1e+37 1e+37 0 0 empty empty empty 0 -8 0 10 #e4e4e4 #373737 #373737 0 256;
#X obj 344 68 orchidea.harp None mf 7;
#X obj 81 105 + 60;
#X obj 581 198 tgl 42 0 empty empty empty 17 7 0 10 #e4e4e4 #000000 #373737 0 1;
#X obj 581 248 switch~;
#X obj 2 46 unpack f f f, f 30;
#X obj 81 83 * 24;
#X obj 2 222 orchidea.violin None mf 12;
#X obj 2 527 giga.rev~;
#X obj 284 323 loadbang;
#X obj 579 105 inlet;
#X obj 2 457 else/lowpass~ 700 0.4;
#X obj 2 414 *~ 16;
#X obj 2 490 hip~ 500;
#X obj 2 568 snake~ in 2;
#X obj 2 597 throw~ sul-pont;
#X msg 2 335 next \$1 \$2 \$3;
#X obj 2 300 pack s f f, f 41;
#X obj 2 385 clone clone-peaks 50;
#X obj 81 134 t f f;
#X msg 284 348 size 50 \, decay 1.5 \, damp 0.1 \, bw 0.75 \, dry 0.84 \, early 0.01 \, late 0.6, f 69;
#X obj 239 531 giga.rev~;
#X obj 239 461 else/lowpass~ 700 0.4;
#X obj 239 494 hip~ 500;
#X obj 239 420 *~ 16;
#X connect 0 0 11 0;
#X connect 1 0 13 0;
#X connect 2 0 23 0;
#X connect 3 0 1 0;
#X connect 4 0 1 0;
#X connect 5 0 4 0;
#X connect 6 0 23 1;
#X connect 8 0 25 0;
#X connect 9 0 10 0;
#X connect 11 1 12 0;
#X connect 11 2 23 1;
#X connect 12 0 8 0;
#X connect 13 0 2 0;
#X connect 14 0 20 0;
#X connect 15 0 26 0;
#X connect 16 0 9 0;
#X connect 17 0 19 0;
#X connect 18 0 17 0;
#X connect 19 0 14 0;
#X connect 20 0 21 0;
#X connect 22 0 24 0;
#X connect 23 0 22 0;
#X connect 24 0 18 0;
#X connect 24 1 30 0;
#X connect 25 0 1 0;
#X connect 25 1 23 2;
#X connect 26 0 14 0;
#X connect 26 0 27 0;
#X connect 27 1 20 1;
#X connect 28 0 29 0;
#X connect 29 0 27 0;
#X connect 30 0 28 0;
#X coords 0 0 1 1 50 48 0;
#X restore 78 273 pd sul-pont;
#X obj 239 229 tgl 25 0 empty empty empty 17 7 0 10 #e4e4e4 #000000 #373737 0 1;
#N canvas 6 556 60 60 plaits 0;
#X obj 8 9 inlet;
#X obj 8 146 + 60;
#X obj 220 91 tgl 42 0 empty empty empty 17 7 0 10 #e4e4e4 #000000 #373737 0 1;
#X obj 220 146 switch~;
#X obj 8 53 unpack f f f, f 30;
#X obj 8 113 * 24;
#X obj 220 53 inlet;
#X msg 10 276 next \$1 \$2;
#X obj 10 211 pack f f;
#X obj 10 313 clone clone-plaits 20, f 28;
#X obj 8 493 snake~ in 2;
#X obj 8 522 throw~ plaits;
#X obj 8 350 lowpass~ 5000 0.2;
#X obj 153 350 lowpass~ 5000 0.2;
#X connect 0 0 4 0;
#X connect 1 0 8 0;
#X connect 2 0 3 0;
#X connect 4 1 5 0;
#X connect 4 2 8 1;
#X connect 5 0 1 0;
#X connect 6 0 2 0;
#X connect 7 0 9 0;
#X connect 8 0 7 0;
#X connect 9 0 12 0;
#X connect 9 1 13 0;
#X connect 10 0 11 0;
#X connect 12 0 10 0;
#X connect 13 0 10 1;
#X coords 0 0 1 1 50 48 0;
#X restore 166 273 pd plaits;
#X obj 310 234 tgl 25 0 empty empty empty 17 7 0 10 #e4e4e4 #000000 #373737 0 1;
#N canvas 6 556 60 60 sen 0;
#X obj 57 4 inlet;
#X msg 318 82 sharp;
#X obj 318 45 loadbang;
#X obj 423 83 tgl 42 0 empty empty empty 17 7 0 10 #e4e4e4 #000000 #373737 0 1;
#X obj 423 133 switch~;
#X obj 57 45 unpack f f f, f 30;
#X msg 287 341 size 50 \, decay 1.5 \, damp 0.1 \, bw 0.75 \, dry 0.84 \, early 0.31 \, late 0.1, f 69;
#X obj 287 269 loadbang;
#X obj 423 45 inlet;
#X obj 57 336 clone clone-sen 40;
#X msg 57 269 next \$1 \$2;
#X obj 57 198 pack f f, f 31;
#X msg 215 4 8 0.3 20;
#X obj 136 115 + 84;
#X obj 136 82 * 36;
#X obj 57 507 snake~ in 2;
#X obj 57 536 throw~ sen;
#X obj 129 438 lowpass~ 5000 0.2;
#X obj 54 387 lowpass~ 5000 0.2;
#X connect 0 0 5 0;
#X connect 2 0 1 0;
#X connect 3 0 4 0;
#X connect 5 1 14 0;
#X connect 5 2 11 1;
#X connect 7 0 6 0;
#X connect 8 0 3 0;
#X connect 9 0 18 0;
#X connect 9 1 17 0;
#X connect 10 0 9 0;
#X connect 11 0 10 0;
#X connect 12 0 5 0;
#X connect 13 0 11 0;
#X connect 14 0 13 0;
#X connect 15 0 16 0;
#X connect 17 0 15 1;
#X connect 18 0 15 0;
#X coords 0 0 1 1 50 48 0;
#X restore 239 273 pd sen;
#X obj 421 234 tgl 25 0 empty empty empty 17 7 0 10 #e4e4e4 #000000 #373737 0 1;
#N canvas 6 556 60 60 flute-air 0;
#X obj 26 8 inlet;
#X obj 26 276 else/pitch2note;
#X obj 26 339 symbol;
#X msg 287 196 sharp;
#X obj 287 174 loadbang;
#X obj 26 380 pack s f, f 41;
#X msg 26 415 next \$1 \$2;
#X obj 105 233 + 60;
#X obj 124 39 tgl 42 0 empty empty empty 17 7 0 10 #e4e4e4 #000000 #373737 0 1;
#X obj 124 100 switch~;
#X obj 26 174 unpack f f f, f 30;
#X obj 26 100 spigot;
#X obj 124 8 inlet;
#X msg 23 211 60;
#X obj 26 313 orchidea.flute None p 1;
#X obj 105 211 * 12;
#X obj 26 510 giga.rev~;
#X obj 170 510 giga.rev~;
#X obj 296 380 loadbang;
#X obj 26 570 snake~ in 2;
#X obj 26 599 throw~ flute-air;
#X obj 26 446 clone load2play-vl-pizz 5, f 28;
#X msg 296 446 size 50 \, decay 1.5 \, damp 0.1 \, bw 0.75 \, dry 0.94 \, early 0.31 \, late 0.9, f 69;
#X obj 170 542 *~ 0.8;
#X obj 26 542 *~ 0.8;
#X connect 0 0 11 0;
#X connect 1 0 14 0;
#X connect 2 0 5 0;
#X connect 3 0 1 0;
#X connect 4 0 3 0;
#X connect 5 0 6 0;
#X connect 6 0 21 0;
#X connect 7 0 1 0;
#X connect 8 0 9 0;
#X connect 8 0 11 1;
#X connect 10 1 15 0;
#X connect 10 2 5 1;
#X connect 11 0 10 0;
#X connect 12 0 8 0;
#X connect 13 0 1 0;
#X connect 14 0 2 0;
#X connect 15 0 7 0;
#X connect 16 0 24 0;
#X connect 17 0 23 0;
#X connect 18 0 22 0;
#X connect 19 0 20 0;
#X connect 21 0 16 0;
#X connect 21 1 17 0;
#X connect 22 0 17 0;
#X connect 22 0 16 0;
#X connect 23 0 19 1;
#X connect 24 0 19 0;
#X coords 0 0 1 1 50 48 0;
#X restore 318 273 pd flute-air;
#X obj 979 152 tgl 25 0 empty empty empty 17 7 0 10 #e4e4e4 #000000 #373737 0 1;
#X obj 519 234 tgl 25 0 empty empty empty 17 7 0 10 #e4e4e4 #000000 #373737 0 1;
#N canvas 6 31 951 1011 click 0;
#X obj 12 6 inlet;
#X obj 12 365 symbol;
#X msg 273 194 sharp;
#X obj 273 172 loadbang;
#X obj 12 401 pack s f, f 41;
#X msg 12 436 next \$1 \$2;
#X obj 110 37 tgl 42 0 empty empty empty 17 7 0 10 #e4e4e4 #000000 #373737 0 1;
#X obj 110 98 switch~;
#X obj 12 172 unpack f f f, f 30;
#X obj 12 98 spigot;
#X obj 110 6 inlet;
#X msg 12 213 60;
#X obj 12 545 snake~ in 2;
#X obj 12 574 throw~ vl-pizz;
#X obj 12 466 clone load2play 25;
#X obj 91 210 * 7;
#X obj 91 237 + 1;
#X obj 117 503 *~ 0.15;
#X obj 12 505 *~ 0.15;
#X obj 91 266 int;
#X msg 91 304 ../Samples/Click/sound\$1.wav;
#X connect 0 0 9 0;
#X connect 1 0 4 0;
#X connect 3 0 2 0;
#X connect 4 0 5 0;
#X connect 5 0 14 0;
#X connect 6 0 7 0;
#X connect 6 0 9 1;
#X connect 8 1 15 0;
#X connect 8 2 4 1;
#X connect 9 0 8 0;
#X connect 10 0 6 0;
#X connect 12 0 13 0;
#X connect 14 0 18 0;
#X connect 14 1 17 0;
#X connect 15 0 16 0;
#X connect 16 0 19 0;
#X connect 17 0 12 1;
#X connect 18 0 12 0;
#X connect 19 0 20 0;
#X connect 20 0 1 0;
#X coords 0 0 1 1 51 49 0;
#X restore 421 273 pd click;
#X obj 979 111 inlet;
#N canvas 0 50 450 300 resonant-metal 0;
#X obj 303 46 switch~;
#X obj 19 12 inlet;
#X obj 303 12 inlet;
#X obj 19 382 snake~ in 2, f 21;
#X obj 19 411 throw~ metal-resonant;
#X obj 19 277 clone clone-metal-resonant 10;
#X obj 19 40 unpack f f f, f 30;
#X msg 19 210 next \$1 \$2;
#X obj 19 182 pack f f;
#X obj 19 91 * 200;
#X obj 124 342 *~ 0.1;
#X obj 19 342 *~ 0.1;
#X connect 1 0 6 0;
#X connect 2 0 0 0;
#X connect 3 0 4 0;
#X connect 5 0 11 0;
#X connect 5 1 10 0;
#X connect 6 1 9 0;
#X connect 6 2 8 1;
#X connect 7 0 5 0;
#X connect 8 0 7 0;
#X connect 9 0 8 0;
#X connect 10 0 3 1;
#X connect 11 0 3 0;
#X restore 552 273 pd resonant-metal;
#X obj 697 229 tgl 25 0 empty empty empty 17 7 0 10 #e4e4e4 #000000 #373737 0 1;
#X obj 731 307 tgl 25 0 empty empty empty 17 7 0 10 #e4e4e4 #000000 #373737 0 1;
#N canvas 483 31 474 487 bartok-harp 0;
#X obj 12 6 inlet;
#X obj 12 299 else/pitch2note;
#X obj 12 385 symbol;
#X msg 273 194 sharp;
#X obj 273 172 loadbang;
#X obj 12 426 pack s f, f 41;
#X msg 12 461 next \$1 \$2;
#X obj 110 37 tgl 42 0 empty empty empty 17 7 0 10 #e4e4e4 #000000 #373737 0 1;
#X obj 110 98 switch~;
#X obj 12 172 unpack f f f, f 30;
#X obj 12 98 spigot;
#X obj 110 6 inlet;
#X msg 9 209 60;
#X obj 12 560 snake~ in 2;
#X obj 12 589 throw~ vl-pizz;
#X obj 12 491 clone load2play-vl-pizz2 25;
#X obj 91 209 * 9;
#X obj 91 231 + 58;
#X obj 12 354 orchidea.oboe None ff 5;
#X obj 166 520 *~ 4;
#X obj 12 520 *~ 4;
#X connect 0 0 10 0;
#X connect 1 0 18 0;
#X connect 2 0 5 0;
#X connect 3 0 1 0;
#X connect 4 0 3 0;
#X connect 5 0 6 0;
#X connect 6 0 15 0;
#X connect 7 0 8 0;
#X connect 7 0 10 1;
#X connect 9 1 16 0;
#X connect 9 2 5 1;
#X connect 10 0 9 0;
#X connect 11 0 7 0;
#X connect 12 0 1 0;
#X connect 13 0 14 0;
#X connect 15 0 20 0;
#X connect 15 1 19 0;
#X connect 16 0 17 0;
#X connect 17 0 1 0;
#X connect 18 0 2 0;
#X connect 19 0 13 1;
#X connect 20 0 13 0;
#X coords 0 0 1 1 51 49 0;
#X restore 699 354 pd bartok-harp;
#X obj 15 152 route #ff0000 #ffff00 #ff00ff #00ffff #00ff00 #808000 #800080 #008000, f 158;
#X obj 907 355 print NOT-FOUND;
#X obj 15 35 list split 1;
#X obj 36 73 list trim;
#X connect 0 0 21 0;
#X connect 1 0 3 1;
#X connect 2 0 4 1;
#X connect 5 0 6 1;
#X connect 7 0 8 1;
#X connect 9 0 10 1;
#X connect 11 0 9 0;
#X connect 11 0 7 0;
#X connect 11 0 5 0;
#X connect 11 0 2 0;
#X connect 11 0 1 0;
#X connect 11 0 12 0;
#X connect 11 0 16 0;
#X connect 11 0 17 0;
#X connect 12 0 13 1;
#X connect 14 0 11 0;
#X connect 16 0 15 1;
#X connect 17 0 18 1;
#X connect 19 0 3 0;
#X connect 19 1 4 0;
#X connect 19 2 6 0;
#X connect 19 3 8 0;
#X connect 19 4 10 0;
#X connect 19 5 13 0;
#X connect 19 6 15 0;
#X connect 19 7 18 0;
#X connect 19 8 20 0;
#X connect 21 1 22 0;
#X connect 22 0 19 0;
#X restore 8 274 pd EllipseIntruments;
#X obj 82 132 nbx 5 16 -1e+37 1e+37 0 0 empty empty empty 0 -9 0 10 #fcfcfc #000000 #000000 0 256;
#X obj 125 247 tgl 18 0 empty empty empty 0 -9 0 10 #fcfcfc #000000 #000000 0 1;
#X text 146 246 Render all instruments;
#X obj 400 319 vu 18 80 empty empty -1 -9 0 10 #404040 #000000 0 0;
#X obj 307 319 vu 18 80 empty empty -1 -9 0 10 #404040 #000000 0 0;
#X obj 505 157 f;
#X connect 0 0 4 0;
#X connect 1 0 4 0;
#X connect 2 0 4 0;
#X connect 4 0 5 0;
#X connect 5 0 6 0;
#X connect 6 0 31 0;
#X connect 7 0 9 0;
#X connect 8 0 27 0;
#X connect 8 0 12 0;
#X connect 9 0 8 0;
#X connect 10 0 9 1;
#X connect 11 0 25 0;
#X connect 11 1 26 0;
#X connect 12 0 32 0;
#X connect 13 0 36 0;
#X connect 14 0 35 0;
#X connect 16 0 19 0;
#X connect 16 0 15 0;
#X connect 16 0 13 0;
#X connect 17 0 19 1;
#X connect 17 0 15 1;
#X connect 17 0 14 0;
#X connect 20 0 19 0;
#X connect 21 0 19 0;
#X connect 22 0 23 0;
#X connect 22 0 30 0;
#X connect 23 0 37 0;
#X connect 24 0 19 0;
#X connect 25 0 16 0;
#X connect 26 0 17 0;
#X connect 27 0 1 0;
#X connect 27 1 0 0;
#X connect 30 0 26 0;
#X connect 30 0 25 0;
#X connect 33 0 31 1;
#X connect 37 0 17 1;
#X connect 37 0 16 1;
