#N canvas 6 31 951 1011 12;
#X obj 9 591 outlet~;
#X obj 9 17 inlet;
#X obj 9 306 readsf~, f 17;
#X msg 140 278 open \$1;
#X msg 9 249 start;
#X obj 9 224 t b a b, f 38;
#X obj 124 366 switch~;
#X msg 125 332 0;
#X msg 272 277 1;
#X obj 140 250 symbol;
#X text 55 16 <sound pathname> \, <duration ms>.;
#X obj 339 260 else/adsr~ 1 1 1 30;
#X obj 339 224 sig~;
#X msg 339 122 1;
#X obj 76 95 t f b, f 38;
#X obj 76 120 t b f, f 12;
#X obj 76 145 del 1 1 msec;
#X msg 76 170 0;
#X obj 9 548 *~, f 44;
#X obj 435 297 sel 0;
#X msg 435 326 0;
#X obj 9 69 unpack s f f, f 75;
#X obj 265 385 loadbang;
#X obj 509 120 else/rint;
#X obj 9 468 pt-trans;
#X obj 9 512 pt-synth~;
#X obj 509 184 else/loop 8;
#X obj 509 213 + 1, f 8;
#X obj 509 297 *, f 5;
#X obj 589 213 mtof;
#X msg 509 326 amps \$1 20 0;
#X obj 509 149 t b f, f 15;
#X obj 9 392 pt-peaks~ -pd loris -pt sms;
#X connect 1 0 21 0;
#X connect 2 0 32 0;
#X connect 2 1 7 0;
#X connect 3 0 2 0;
#X connect 4 0 2 0;
#X connect 5 0 4 0;
#X connect 5 1 9 0;
#X connect 5 2 8 0;
#X connect 7 0 6 0;
#X connect 8 0 6 0;
#X connect 9 0 3 0;
#X connect 11 0 18 1;
#X connect 11 1 19 0;
#X connect 12 0 11 0;
#X connect 13 0 12 0;
#X connect 14 0 15 0;
#X connect 14 1 13 0;
#X connect 15 0 16 0;
#X connect 15 1 16 1;
#X connect 16 0 17 0;
#X connect 17 0 12 0;
#X connect 18 0 0 0;
#X connect 19 0 20 0;
#X connect 20 0 6 0;
#X connect 21 0 5 0;
#X connect 21 1 14 0;
#X connect 21 2 23 0;
#X connect 22 0 7 0;
#X connect 23 0 31 0;
#X connect 24 0 25 0;
#X connect 25 0 18 0;
#X connect 26 0 27 0;
#X connect 27 0 28 0;
#X connect 28 0 30 0;
#X connect 29 0 28 1;
#X connect 30 0 24 0;
#X connect 31 0 26 0;
#X connect 31 1 29 0;
#X connect 32 0 24 0;
