#N canvas 827 239 527 327 12;
#X obj 45 7 inlet;
#X obj 45 503 outlet~;
#X obj 120 503 outlet~;
#X obj 265 146 loadbang;
#X msg 265 175 trigger 1;
#X obj 45 213 pack f f;
#X obj 45 258 else/plaits~ -model 11 -midi;
#X obj 45 180 makenote 5 200;
#X obj 45 36 unpack f f;
#X obj 120 111 t b f;
#X obj 47 335 +~;
#X obj 45 430 earplug~;
#X obj 378 137 - 60;
#X obj 378 166 / 24;
#X obj 378 195 * 360;
#X obj 378 224 % 360;
#X obj 45 65 t f f, f 5;
#X obj 120 146 expr random(1 \, 15);
#X obj 47 364 /~ 4;
#X connect 0 0 8 0;
#X connect 3 0 4 0;
#X connect 4 0 6 0;
#X connect 5 0 6 0;
#X connect 6 0 10 0;
#X connect 6 1 10 1;
#X connect 7 0 5 0;
#X connect 7 1 5 1;
#X connect 8 0 16 0;
#X connect 8 1 9 0;
#X connect 9 0 17 0;
#X connect 9 1 7 2;
#X connect 10 0 18 0;
#X connect 11 0 1 0;
#X connect 11 1 2 0;
#X connect 12 0 13 0;
#X connect 13 0 14 0;
#X connect 14 0 15 0;
#X connect 15 0 11 1;
#X connect 16 0 7 0;
#X connect 16 1 12 0;
#X connect 17 0 7 1;
#X connect 18 0 11 0;
