#N canvas 827 239 527 327 12;
#X obj 45 28 inlet;
#X obj 45 401 outlet~;
#X obj 120 401 outlet~;
#X obj 221 33 loadbang;
#X msg 221 62 trigger 1;
#X obj 45 227 pack f f;
#X obj 45 258 else/plaits~ -model 11 -midi;
#X obj 45 188 makenote 5 200;
#X obj 45 57 unpack f f;
#X obj 117 108 t b f;
#X obj 117 143 expr random(1 \, 15);
#X obj 45 287 *~ 0.3;
#X obj 125 287 *~ 0.3;
#X connect 0 0 8 0;
#X connect 3 0 4 0;
#X connect 4 0 6 0;
#X connect 5 0 6 0;
#X connect 6 0 11 0;
#X connect 6 1 12 0;
#X connect 7 0 5 0;
#X connect 7 1 5 1;
#X connect 8 0 7 0;
#X connect 8 1 9 0;
#X connect 9 0 10 0;
#X connect 9 1 7 2;
#X connect 10 0 7 1;
#X connect 11 0 1 0;
#X connect 12 0 2 0;
