#N canvas 733 172 450 300 10;
#X obj 19 242 tabplay~ tab\$0;
#X obj 263 185 sig~ 1;
#X obj 263 149 tgl 25 0 empty empty empty 17 7 0 10 #e4e4e4 #000000 #373737 0 1;
#X obj 19 175 bng 25 250 50 0 empty empty empty 17 7 0 10 #e4e4e4 #000000 #373737;
#X obj 19 571 outlet~;
#X obj 492 236 nbx 16 18 -1e+37 1e+37 0 0 empty empty empty 0 -8 0 10 #e4e4e4 #373737 #373737 0 256;
#X obj 492 292 nbx 10 23 -1e+37 1e+37 0 0 empty empty empty 0 -8 0 10 #e4e4e4 #373737 #373737 0 256;
#X obj 492 263 expr pow(2 \, $f1/1200), f 23;
#X obj 19 326 else/highpass~ 200 0.1;
#X obj 19 404 *~ 4;
#X obj 124 -1 inlet;
#X obj 711 326 soundfiler;
#X msg 711 284 read -resize \$1 \$2;
#X obj 884 249 symbol tab\$0;
#X obj 893 185 bng 25 250 50 0 empty empty empty 17 7 0 10 #e4e4e4 #000000 #373737;
#X obj 731 232 pack s s;
#X obj 689 79 loadbang;
#X obj 963 207 array define tab\$0;
#X obj 19 295 *~, f 26;
#X obj 689 108 t b b;
#X msg 694 149 symbol ../Samples/Resonant/Metal_Resonant.wav;
#X obj 19 364 soundtouch~;
#X obj 19 493 earplug~, f 27;
#X obj 141 571 outlet~;
#X obj 341 401 line;
#X obj 19 452 giga.rev~;
#X msg 434 444 size 40 \, decay 20 \, damp 0.5 \, bw 0.75 \, dry 1 \, early 0.31 \, late 0.031, f 67;
#X obj 434 404 loadbang;
#X obj 341 430 nbx 4 18 -1e+37 1e+37 0 0 empty empty empty 0 -8 0 10 #e4e4e4 #373737 #373737 0 256;
#X msg 19 207 30000;
#X obj 397 507 % 360;
#X obj 372 96 expr random(0\\\, 360);
#X obj 372 125 t f f;
#X obj 372 185 pack;
#X obj 397 154 + 180;
#X msg 341 364 \$1 \, \$2 3000;
#X obj 263 213 adsr~ 100 20 1 500;
#X obj 124 28 unpack f f;
#X obj 124 66 t b b f b, f 45;
#X connect 0 0 18 0;
#X connect 0 1 2 0;
#X connect 1 0 36 0;
#X connect 2 0 1 0;
#X connect 3 0 29 0;
#X connect 5 0 7 0;
#X connect 6 0 21 1;
#X connect 7 0 6 0;
#X connect 8 0 21 0;
#X connect 9 0 25 0;
#X connect 10 0 37 0;
#X connect 12 0 11 0;
#X connect 13 0 15 1;
#X connect 14 0 13 0;
#X connect 15 0 12 0;
#X connect 16 0 19 0;
#X connect 18 0 8 0;
#X connect 19 0 20 0;
#X connect 19 1 14 0;
#X connect 20 0 15 0;
#X connect 21 0 9 0;
#X connect 22 0 4 0;
#X connect 22 1 23 0;
#X connect 24 0 28 0;
#X connect 25 0 22 0;
#X connect 26 0 25 0;
#X connect 27 0 26 0;
#X connect 28 0 30 0;
#X connect 29 0 0 0;
#X connect 30 0 22 1;
#X connect 31 0 32 0;
#X connect 32 0 33 0;
#X connect 32 1 34 0;
#X connect 33 0 35 0;
#X connect 34 0 33 1;
#X connect 35 0 24 0;
#X connect 36 0 18 1;
#X connect 37 0 38 0;
#X connect 38 0 3 0;
#X connect 38 1 2 0;
#X connect 38 2 5 0;
#X connect 38 3 31 0;
