#N canvas 827 239 527 327 12;
#X obj 24 17 inlet;
#X text 73 16 <midi> \, <dur>;
#X obj 24 557 outlet~;
#X obj 153 383 switch~;
#X obj 313 229 sig~;
#X msg 315 150 1;
#X obj 91 125 t b f, f 12;
#X obj 91 150 del 1 1 msec;
#X msg 91 175 0;
#X obj 24 418 *~, f 44;
#X obj 409 302 sel 0;
#X msg 410 331 0;
#X obj 203 557 outlet~;
#X obj 534 309 expr random(0 \, 100) * 0.01;
#X obj 534 338 nbx 4 18 -1e+37 1e+37 0 0 empty empty empty 0 -8 0 10 #e4e4e4 #373737 #373737 0 256;
#X obj 535 265 bng 25 250 50 0 empty empty empty 17 7 0 10 #e4e4e4 #000000 #373737;
#X obj 534 477 nbx 4 18 -1e+37 1e+37 0 0 empty empty empty 0 -8 0 10 #e4e4e4 #373737 #373737 0 256;
#X obj 534 448 !- 1;
#X obj 24 483 *~;
#X obj 203 483 *~;
#X obj 24 275 osc~, f 17;
#X obj 24 57 unpack f f, f 12;
#X obj 24 160 mtof;
#X obj 153 275 osc~, f 17;
#X obj 73 219 *;
#X obj 91 100 t f b b b, f 67;
#X obj 153 304 *~ 0.1;
#X obj 25 337 +~;
#X obj 513 135 expr random(3\\\, 15);
#X obj 25 366 /~ 4;
#X obj 313 265 else/adsr~ 5 20 0.8 10;
#X connect 0 0 21 0;
#X connect 4 0 30 0;
#X connect 5 0 4 0;
#X connect 5 0 3 0;
#X connect 6 0 7 0;
#X connect 6 1 7 1;
#X connect 7 0 8 0;
#X connect 8 0 4 0;
#X connect 9 0 18 0;
#X connect 9 0 19 0;
#X connect 10 0 11 0;
#X connect 11 0 3 0;
#X connect 13 0 14 0;
#X connect 14 0 17 0;
#X connect 14 0 18 1;
#X connect 15 0 13 0;
#X connect 16 0 19 1;
#X connect 17 0 16 0;
#X connect 18 0 2 0;
#X connect 19 0 12 0;
#X connect 20 0 27 0;
#X connect 21 0 22 0;
#X connect 21 1 25 0;
#X connect 22 0 20 0;
#X connect 22 0 24 0;
#X connect 23 0 26 0;
#X connect 24 0 23 0;
#X connect 25 0 6 0;
#X connect 25 1 5 0;
#X connect 25 2 15 0;
#X connect 25 3 28 0;
#X connect 26 0 27 1;
#X connect 27 0 29 0;
#X connect 28 0 24 1;
#X connect 29 0 9 0;
#X connect 30 0 9 1;
#X connect 30 1 10 0;
