#N canvas 963 292 474 226 12;
#X obj 9 17 inlet;
#X obj 9 205 readsf~, f 17;
#X msg 140 171 open \$1;
#X msg 9 142 start;
#X obj 9 117 t b a b, f 38;
#X obj 140 143 symbol;
#X obj 9 46 unpack s f;
#X obj 9 533 outlet~;
#X obj 109 533 outlet~;
#X obj 9 338 lowpass~ 200 0.4;
#X obj 292 85 t b b, f 18;
#X obj 399 142 expr random(0.3 \, 0.8);
#X obj 292 171 expr random(200 \, 400);
#X connect 0 0 6 0;
#X connect 1 0 9 0;
#X connect 2 0 1 0;
#X connect 3 0 1 0;
#X connect 4 0 3 0;
#X connect 4 1 5 0;
#X connect 5 0 2 0;
#X connect 6 0 4 0;
#X connect 6 1 10 0;
#X connect 9 0 7 0;
#X connect 9 0 8 0;
#X connect 10 0 12 0;
#X connect 10 1 11 0;
#X connect 11 0 9 2;
#X connect 12 0 9 1;
