#N canvas 863 31 1051 1011 12;
#X obj 9 594 outlet~;
#X obj 9 17 inlet;
#X obj 9 306 readsf~, f 17;
#X msg 140 278 open \$1;
#X msg 9 249 start;
#X obj 9 224 t b a b, f 38;
#X obj 124 414 switch~;
#X msg 125 332 0;
#X msg 254 278 1;
#X obj 140 250 symbol;
#X text 55 16 <sound pathname> \, <duration ms>.;
#X obj 337 224 sig~;
#X msg 339 159 1;
#X obj 76 120 t b f, f 12;
#X obj 76 145 del 1 1 msec;
#X msg 76 170 0;
#X obj 9 436 *~, f 44;
#X obj 434 299 sel 0;
#X msg 435 330 0;
#X obj 188 594 outlet~;
#X obj 539 299 expr random(0 \, 100) * 0.01;
#X obj 539 328 nbx 4 18 -1e+37 1e+37 0 0 empty empty empty 0 -8 0 10 #e4e4e4 #373737 #373737 0 256;
#X obj 539 260 bng 25 250 50 0 empty empty empty 17 7 0 10 #e4e4e4 #000000 #373737;
#X obj 767 491 nbx 4 18 -1e+37 1e+37 0 0 empty empty empty 0 -8 0 10 #e4e4e4 #373737 #373737 0 256;
#X obj 767 462 !- 1;
#X obj 9 557 *~;
#X obj 188 557 *~;
#X obj 76 95 t f b b, f 67;
#X obj 9 47 unpack s f f, f 125;
#X obj 839 132 t f f, f 16;
#X obj 926 181 else/rint;
#X obj 838 241 -;
#X obj 838 299 nbx 16 18 -1e+37 1e+37 0 0 empty empty empty 0 -8 0 10 #e4e4e4 #373737 #373737 0 256;
#X obj 907 77 nbx 10 32 -1e+37 1e+37 0 0 empty empty empty 0 -8 0 10 #e4e4e4 #373737 #373737 0 256;
#X obj 838 270 * 100;
#X obj 9 470 soundtouch~;
#X obj 838 355 nbx 10 23 -1e+37 1e+37 0 0 empty empty empty 0 -8 0 10 #e4e4e4 #373737 #373737 0 256;
#X obj 838 326 expr pow(2 \, $f1/1200);
#X obj 337 260 else/adsr~ 1 1 1 90;
#X connect 1 0 28 0;
#X connect 2 0 16 0;
#X connect 2 1 7 0;
#X connect 3 0 2 0;
#X connect 4 0 2 0;
#X connect 5 0 4 0;
#X connect 5 1 9 0;
#X connect 5 2 8 0;
#X connect 7 0 6 0 32.................q.........vJ.........TE....;
#X connect 8 0 6 0 32.................7....D3+++OO....A9+++uH....;
#X connect 9 0 3 0;
#X connect 11 0 38 0;
#X connect 12 0 11 0;
#X connect 13 0 14 0;
#X connect 13 1 14 1;
#X connect 14 0 15 0;
#X connect 15 0 11 0 32.................Q....XP...PD....FD...HB....;
#X connect 16 0 35 0;
#X connect 17 0 18 0;
#X connect 18 0 6 0 32.................c....vr+++eG....L6+++eE....;
#X connect 20 0 21 0;
#X connect 21 0 24 0 32.................V....bH...fE....GB...HD....;
#X connect 21 0 25 1 32.................oB...ne+++ep....52+++OM....;
#X connect 22 0 20 0;
#X connect 23 0 26 1 32.................X....jb+++OF....I2+++CC....;
#X connect 24 0 23 0;
#X connect 25 0 0 0;
#X connect 26 0 19 0;
#X connect 27 0 13 0;
#X connect 27 1 12 0 32.................V....bB...fE....m....vB....;
#X connect 27 2 22 0;
#X connect 28 0 5 0;
#X connect 28 1 27 0;
#X connect 28 2 29 0;
#X connect 29 0 31 0;
#X connect 29 1 30 0;
#X connect 30 0 31 1;
#X connect 31 0 34 0;
#X connect 32 0 37 0;
#X connect 33 0 29 0;
#X connect 34 0 32 0;
#X connect 35 0 25 0;
#X connect 35 0 26 0;
#X connect 36 0 35 1 32.................T....bP+++OE....Gz+++uC....;
#X connect 37 0 36 0;
#X connect 38 0 16 1 32.................gA...T8+++eX....U++++GL....;
#X connect 38 1 17 0;
