#N canvas 963 292 474 226 12;
#X obj 9 17 inlet;
#X obj 9 205 readsf~, f 17;
#X msg 140 171 open \$1;
#X msg 9 142 start;
#X obj 9 117 t b a b, f 38;
#X obj 140 143 symbol;
#X obj 9 46 unpack s f;
#X obj 292 117 nbx 4 18 -1e+37 1e+37 0 0 empty empty empty 0 -8 0 10 #e4e4e4 #373737 #373737 0 256;
#X msg 396 115 reset;
#X obj 319 338 *;
#X obj 292 144 mtof;
#X obj 292 173 t b f;
#X obj 496 188 bng 25 250 50 0 empty empty empty 17 7 0 10 #e4e4e4 #000000 #373737;
#X obj 497 253 + 1;
#X obj 9 533 outlet~;
#X obj 497 224 else/loop 20;
#X msg 319 367 amps \$1 100 0;
#X obj 109 533 outlet~;
#X obj 292 85 t f b b, f 18;
#X obj 517 95 expr random(90\\\, 270);
#X connect 0 0 6 0;
#X connect 1 0 14 0;
#X connect 1 0 17 0;
#X connect 2 0 1 0;
#X connect 3 0 1 0;
#X connect 4 0 3 0;
#X connect 4 1 5 0;
#X connect 5 0 2 0;
#X connect 6 0 4 0;
#X connect 6 1 18 0;
#X connect 7 0 10 0;
#X connect 9 0 16 0;
#X connect 10 0 11 0;
#X connect 11 0 15 0;
#X connect 11 1 9 1;
#X connect 12 0 15 0;
#X connect 13 0 9 0;
#X connect 15 0 13 0;
#X connect 18 0 7 0;
#X connect 18 1 8 0;
#X connect 18 2 19 0;
