#N canvas 863 31 1051 1011 12;
#X obj 9 552 outlet~;
#X obj 9 17 inlet;
#X msg 272 277 1;
#X obj 339 260 else/adsr~ 1 1 1 30;
#X obj 339 224 sig~;
#X msg 339 122 1;
#X obj 9 509 *~, f 44;
#X obj 435 297 sel 0;
#X msg 435 326 0;
#X text 55 16 <midi> \, <duration ms>.;
#X obj 9 69 unpack f f;
#X obj 46 201 else/plaits~;
#X connect 1 0 10 0;
#X connect 3 0 6 1;
#X connect 3 1 7 0;
#X connect 4 0 3 0;
#X connect 5 0 4 0;
#X connect 6 0 0 0;
#X connect 7 0 8 0;
