#N canvas 6 31 951 1011 12;
#X declare -lib pd-partialtrack/pd-partialtrack/partialtrack;
#X obj 88 199 symbol;
#X obj 88 228 pack s f, f 41;
#X obj 372 167 nbx 23 32 -1e+37 1e+37 0 0 empty empty empty 0 -8 0 10 #e4e4e4 #373737 #373737 0 256;
#X obj 89 392 dac~;
#X obj 5 4 py4pd -lib orchidea;
#X msg 205 111 sharp;
#X obj 88 167 orchidea.harp None ff 7;
#X obj 146 4 declare -lib pd-partialtrack/pd-partialtrack/partialtrack;
#X obj 87 111 else/pitch2note;
#X obj 89 331 clone load2play 5;
#X msg 88 263 next \$1 \$2;
#X msg 122 56 48;
#X msg 158 55 80;
#X msg 87 56 61;
#X connect 0 0 1 0;
#X connect 1 0 10 0;
#X connect 2 0 1 1;
#X connect 5 0 8 0;
#X connect 6 0 0 0;
#X connect 8 0 6 0;
#X connect 9 0 3 0;
#X connect 9 0 3 1;
#X connect 10 0 9 0;
#X connect 11 0 8 0;
#X connect 12 0 8 0;
#X connect 13 0 2 0;
#X connect 13 0 8 0;
